solid 
   facet normal -1.224647e-16 -1.000000e+00 0.000000e+00
      outer loop
         vertex -2.080000e+02 2.547265e-14 1.500000e+00
         vertex -2.080000e+02 2.547265e-14 0.000000e+00
         vertex 0.000000e+00 0.000000e+00 0.000000e+00
      endloop
   endfacet
   facet normal -1.224647e-16 -1.000000e+00 0.000000e+00
      outer loop
         vertex -2.080000e+02 2.547265e-14 1.500000e+00
         vertex 0.000000e+00 0.000000e+00 0.000000e+00
         vertex 0.000000e+00 0.000000e+00 1.500000e+00
      endloop
   endfacet
   facet normal 1.000000e+00 -1.224647e-16 0.000000e+00
      outer loop
         vertex 0.000000e+00 0.000000e+00 1.500000e+00
         vertex 0.000000e+00 0.000000e+00 0.000000e+00
         vertex 5.510911e-15 4.500000e+01 0.000000e+00
      endloop
   endfacet
   facet normal 1.000000e+00 -1.224647e-16 0.000000e+00
      outer loop
         vertex 0.000000e+00 0.000000e+00 1.500000e+00
         vertex 5.510911e-15 4.500000e+01 0.000000e+00
         vertex 5.510911e-15 4.500000e+01 1.500000e+00
      endloop
   endfacet
   facet normal 0.000000e+00 1.000000e+00 -0.000000e+00
      outer loop
         vertex 5.510911e-15 4.500000e+01 1.500000e+00
         vertex 5.510911e-15 4.500000e+01 0.000000e+00
         vertex -2.080000e+02 4.500000e+01 0.000000e+00
      endloop
   endfacet
   facet normal 0.000000e+00 1.000000e+00 0.000000e+00
      outer loop
         vertex 5.510911e-15 4.500000e+01 1.500000e+00
         vertex -2.080000e+02 4.500000e+01 0.000000e+00
         vertex -2.080000e+02 4.500000e+01 1.500000e+00
      endloop
   endfacet
   facet normal -1.000000e+00 0.000000e+00 0.000000e+00
      outer loop
         vertex -2.080000e+02 4.500000e+01 1.500000e+00
         vertex -2.080000e+02 4.500000e+01 0.000000e+00
         vertex -2.080000e+02 2.842171e-14 0.000000e+00
      endloop
   endfacet
   facet normal -1.000000e+00 0.000000e+00 0.000000e+00
      outer loop
         vertex -2.080000e+02 4.500000e+01 1.500000e+00
         vertex -2.080000e+02 2.842171e-14 0.000000e+00
         vertex -2.080000e+02 2.842171e-14 1.500000e+00
      endloop
   endfacet
   facet normal -0.000000e+00 0.000000e+00 1.000000e+00
      outer loop
         vertex -2.080000e+02 4.500000e+01 1.500000e+00
         vertex -2.080000e+02 2.547265e-14 1.500000e+00
         vertex 0.000000e+00 0.000000e+00 1.500000e+00
      endloop
   endfacet
   facet normal 0.000000e+00 -0.000000e+00 1.000000e+00
      outer loop
         vertex -2.080000e+02 4.500000e+01 1.500000e+00
         vertex 0.000000e+00 0.000000e+00 1.500000e+00
         vertex 5.510911e-15 4.500000e+01 1.500000e+00
      endloop
   endfacet
   facet normal 0.000000e+00 0.000000e+00 -1.000000e+00
      outer loop
         vertex 0.000000e+00 0.000000e+00 0.000000e+00
         vertex -2.080000e+02 2.547265e-14 0.000000e+00
         vertex -2.080000e+02 4.500000e+01 0.000000e+00
      endloop
   endfacet
   facet normal 0.000000e+00 0.000000e+00 -1.000000e+00
      outer loop
         vertex 5.510911e-15 4.500000e+01 0.000000e+00
         vertex 0.000000e+00 0.000000e+00 0.000000e+00
         vertex -2.080000e+02 4.500000e+01 0.000000e+00
      endloop
   endfacet
endsolid
